PathFileType	4	(X/Y/Z)	C:/Users/cmwille/Documents/OptiTrack/OpenSim_Lab5_04202021/group4_jump_1.trc
DataRate	CameraRate	NumFrames	NumMarkers	Units	OrigDataRate	OrigDataStartFrame	OrigNumFrames
200	200	5	39	m	200	248	994
Frame#	Time	L.ASIS			L.Acromium			L.Ankle.Lat			L.Ankle.Med			L.Heel			L.Knee.Lat			L.Knee.Med			L.Midfoot.Lat			L.Midfoot.Sup			L.Shank.Front			L.Shank.Rear			L.Shank.Upper			L.Thigh.Front			L.Thigh.Rear			L.Thigh.Upper			L.Toe.Lat			L.Toe.Med			L.Toe.Tip			R.ASIS			R.Acromium			R.Ankle.Lat			R.Ankle.Med			R.Heel			R.Knee.Lat			R.Knee.Med			R.Midfoot.Lat			R.Midfoot.Sup			R.Shank.Front			R.Shank.Rear			R.Shank.Upper			R.Thigh.Front			R.Thigh.Rear			R.Thigh.Upper			R.Toe.Lat			R.Toe.Med			R.Toe.Tip			Sternum			Top.Head			V.Sacral			
		X1	Y1	Z1	X2	Y2	Z2	X3	Y3	Z3	X4	Y4	Z4	X5	Y5	Z5	X6	Y6	Z6	X7	Y7	Z7	X8	Y8	Z8	X9	Y9	Z9	X10	Y10	Z10	X11	Y11	Z11	X12	Y12	Z12	X13	Y13	Z13	X14	Y14	Z14	X15	Y15	Z15	X16	Y16	Z16	X17	Y17	Z17	X18	Y18	Z18	X19	Y19	Z19	X20	Y20	Z20	X21	Y21	Z21	X22	Y22	Z22	X23	Y23	Z23	X24	Y24	Z24	X25	Y25	Z25	X26	Y26	Z26	X27	Y27	Z27	X28	Y28	Z28	X29	Y29	Z29	X30	Y30	Z30	X31	Y31	Z31	X32	Y32	Z32	X33	Y33	Z33	X34	Y34	Z34	X35	Y35	Z35	X36	Y36	Z36	X37	Y37	Z37	X38	Y38	Z38	X39	Y39	Z39
248	1.24	0.223474	1.0358	0.467526	0.0918095	1.52979	0.426676	0.0793321	0.117805	0.362413	0.0988985	0.122385	0.471166	0.00212585	0.0683331	0.41476	0.146434	0.531941	0.398258	0.161979	0.505192	0.521882	0.128084	0.0413987	0.335948	0.157948	0.0390792	0.467405	0.180114	0.446015	0.438197	0.147073	0.36821	0.385962	0.117093	0.480369	0.388201	0.153249	0.733215	0.378054	0.0352258	0.634008	0.452445	0.0299584	0.71264	0.457121	0.239352	0.0586291	0.336209	0.236975	0.0491966	0.466762	0.307308	0.0678152	0.405055	0.208579	1.06113	0.783557	0.177444	1.51681	0.82492	0.0821053	0.126944	0.881966	0.113735	0.130372	0.77512	0.0074919	0.0669054	0.819243	0.161754	0.53201	0.842907	0.173429	0.526084	0.718463	0.125678	0.0400575	0.911739	0.166497	0.0426974	0.782637	0.185241	0.46549	0.796495	0.172006	0.378057	0.83787	0.135274	0.482588	0.853867	0.220698	0.753673	0.850326	0.0777296	0.660843	0.835249	0.0678319	0.73515	0.827472	0.210069	0.0384413	0.931007	0.241111	0.0451848	0.796149	0.311017	0.0702598	0.858267	0.301882	1.34429	0.587675	0.381131	1.82449	0.568931	0.0462557	1.07974	0.624868
249	1.245	0.223617	1.03574	0.467571	0.0921175	1.52977	0.426417	0.0793412	0.11781	0.362413	0.098901	0.12238	0.471171	0.00211444	0.0683504	0.414763	0.146508	0.53194	0.398269	0.162034	0.505214	0.521886	0.128086	0.0414106	0.335943	0.157949	0.0390798	0.4674	0.180144	0.445997	0.438214	0.147103	0.368213	0.385969	0.117168	0.480334	0.388202	0.153456	0.733141	0.378018	0.0352969	0.634029	0.452442	0.0300381	0.712641	0.45712	0.239362	0.0586283	0.336215	0.236831	0.0490188	0.466577	0.307308	0.0678169	0.405058	0.208531	1.06115	0.783578	0.17726	1.5169	0.824831	0.082109	0.126955	0.881972	0.113739	0.13038	0.775121	0.00748976	0.0669098	0.819232	0.16173	0.532005	0.842936	0.173417	0.526069	0.718502	0.125685	0.0400125	0.91185	0.166507	0.0426987	0.782641	0.185231	0.465492	0.79653	0.171982	0.378062	0.837889	0.135255	0.482588	0.853895	0.220676	0.753684	0.850411	0.0777123	0.660851	0.835252	0.0677945	0.73515	0.827471	0.210067	0.0384441	0.931003	0.241094	0.0451953	0.796151	0.311016	0.0702648	0.858265	0.301894	1.34428	0.587738	0.381166	1.82465	0.569819	0.0462775	1.07975	0.62483
250	1.25	0.223709	1.03572	0.467614	0.0924006	1.52973	0.426162	0.0793355	0.117816	0.362419	0.0987566	0.122166	0.470861	0.0021147	0.0683536	0.414765	0.146555	0.531934	0.398277	0.16208	0.505224	0.521894	0.128052	0.0413984	0.335945	0.157938	0.0390815	0.467413	0.180295	0.446287	0.438337	0.147135	0.368218	0.385972	0.117196	0.480364	0.388208	0.153538	0.733146	0.378028	0.0353888	0.634021	0.452424	0.0301074	0.712652	0.457115	0.239343	0.0586432	0.33622	0.236977	0.0492062	0.466766	0.307309	0.0678175	0.405054	0.208437	1.06124	0.783648	0.177099	1.51701	0.824738	0.0820962	0.126963	0.881975	0.113728	0.130372	0.775127	0.00749928	0.0669024	0.819247	0.161717	0.53201	0.842952	0.173424	0.526067	0.718521	0.125685	0.040022	0.911846	0.166494	0.0426998	0.782643	0.185226	0.465531	0.796576	0.171968	0.378066	0.837919	0.135252	0.482603	0.853917	0.220637	0.753692	0.85045	0.0776843	0.660851	0.835268	0.0677822	0.735148	0.827479	0.210062	0.0384475	0.931012	0.241097	0.0452137	0.79614	0.311013	0.0702669	0.85827	0.301906	1.34427	0.587812	0.38113	1.82482	0.570646	0.0462431	1.07977	0.624696
251	1.255	0.223827	1.03576	0.467644	0.0926894	1.52975	0.425909	0.0793373	0.11783	0.362419	0.0989224	0.122417	0.471169	0.00211109	0.0683766	0.414769	0.146613	0.531936	0.398293	0.162081	0.505208	0.521913	0.128089	0.0414519	0.335955	0.157942	0.0390839	0.467417	0.180345	0.446285	0.438352	0.147171	0.368216	0.385981	0.117235	0.480376	0.388214	0.153634	0.733148	0.378035	0.0354435	0.634038	0.452416	0.0301801	0.712634	0.457105	0.239354	0.058629	0.336219	0.236826	0.0490348	0.466584	0.307311	0.067813	0.405053	0.208385	1.06125	0.783681	0.176937	1.51712	0.824637	0.0820897	0.126983	0.881981	0.113722	0.130402	0.775128	0.00750315	0.0669129	0.819242	0.161697	0.532019	0.842974	0.173439	0.526081	0.718542	0.125663	0.0400396	0.911845	0.166499	0.0427187	0.782644	0.185223	0.465544	0.796594	0.171965	0.378081	0.837947	0.135225	0.482611	0.85393	0.220609	0.753694	0.850487	0.0776732	0.660849	0.835271	0.0677474	0.735157	0.827492	0.210057	0.0384396	0.931013	0.241109	0.0452026	0.796139	0.311007	0.0702667	0.858272	0.30193	1.34427	0.587877	0.38109	1.825	0.571508	0.046275	1.0797	0.624609
252	1.26	0.223885	1.03562	0.467765	0.0929496	1.52975	0.425682	0.0793379	0.117837	0.362421	0.098747	0.122192	0.47088	0.00208847	0.0684105	0.414769	0.146733	0.531998	0.39812	0.162139	0.505219	0.521939	0.128059	0.0414378	0.335946	0.157935	0.0390828	0.467413	0.18038	0.446292	0.438368	0.147216	0.368213	0.385988	0.117284	0.48038	0.388223	0.153712	0.733141	0.378046	0.0355049	0.634049	0.452407	0.0302676	0.71262	0.457095	0.239355	0.0586492	0.336213	0.236832	0.0490429	0.466586	0.307307	0.0678208	0.405059	0.208329	1.0613	0.783686	0.176744	1.51722	0.824523	0.0820998	0.126984	0.881988	0.113725	0.130408	0.775125	0.00750602	0.0669252	0.819237	0.161687	0.53202	0.842992	0.17344	0.526082	0.71857	0.125663	0.0400877	0.911743	0.16649	0.0427219	0.782646	0.185218	0.465553	0.796612	0.171948	0.37808	0.837956	0.135208	0.482608	0.853946	0.220598	0.753702	0.850516	0.0776164	0.66086	0.835305	0.0677363	0.735138	0.827502	0.21006	0.038448	0.931011	0.241092	0.0452005	0.796142	0.311009	0.0702691	0.858267	0.301945	1.34427	0.587945	0.381053	1.82519	0.572294	0.0462889	1.07977	0.62462
